<svg xmlns="http://www.w3.org/2000/svg"
     viewBox="0 0 273.42 264.16">
  <path
      d="M265 72.09a15.1 15.1 0 00-20.27 6.8c-.1.19-8.25 16-26 32.24C209 94.5 194.8 77 174.42 59.2q-4.89-4.28-9.71-8.15c11-12.23 26.88-23.53 46.64-20.16a15.14 15.14 0 005.09-29.84C189.74-3.5 166.71 7.19 148.88 24a142.7 142.7 0 00-25.87 34.12l-2 3.73a219.15 219.15 0 00-21.37 66.63 114.39 114.39 0 0014.88 2.05 151.88 151.88 0 0015.41-.11 191.82 191.82 0 0117.72-54.16q3.41 2.74 6.87 5.74c18.79 16.41 31.32 32.18 39.62 47-19.69 11.17-41.71 17-65.89 17.5v-.06a180.57 180.57 0 01-30.14-2 235.96 235.96 0 01-9.36-1.59c-34-6.6-54.63-22.62-58-45.13-2.77-18.26 7-38.36 22.61-46.74a53.4 53.4 0 0126-6.8c8.15 0 17.69 1.83 28.89 6.67a166.75 166.75 0 0117-25.45C94 10.48 65.54 10.17 39 24.37 12.22 38.74-3.86 71.52.8 102.32c5.39 35.61 35.36 61.23 82.2 70.31q8.34 1.62 16.26 2.57c4.24 30.57 17.74 56.8 40.1 74.24 12.52 9.75 26.21 14.72 39.64 14.72a54.38 54.38 0 0024-5.59c22.57-11 37.18-37 37.23-66.15 0-14.63-1.33-32.64-8.22-52.73 27.19-22.13 39.35-46.23 39.88-47.29A15.16 15.16 0 00265 72.09m-75.33 159.28c-9.75 4.76-20.72 2.75-31.72-5.81-14.41-11.23-23.93-28-27.87-48.87 31.09-.9 56.17-9.2 75.58-19.53a132.64 132.64 0 014.25 35.21c0 17.71-8 33-20.24 39"
      fill="#5dd9a5"/>
  <path d="M271.75 23.29A16 16 0 11254 9.22a16 16 0 0117.72 14.07"
        fill="#131727"/>
</svg>
